
  <svg width="273" height="48" viewBox="0 0 1456 256" fill="none" xmlns="http://www.w3.org/2000/svg" xmlns:xlink="http://www.w3.org/1999/xlink" version="1.1">
    
        <g transform="translate(0, 0)">
          <svg width="256" height="256" viewBox="0 0 256 256" fill="none" xmlns="http://www.w3.org/2000/svg">
<rect width="256" height="256" rx="60" fill="#242938"/>
<path d="M180.975 90.4153L167.567 103.824C189.508 125.765 189.508 161.115 167.567 182.65C145.625 204.591 110.275 204.591 88.7404 182.65C66.7991 160.709 66.7991 125.359 88.7404 103.824L123.481 69.0835L128.357 64.2077V38L75.9413 90.4153C46.6862 119.67 46.6862 166.804 75.9413 196.059C105.196 225.314 152.33 225.314 180.975 196.059C210.23 166.6 210.23 119.67 180.975 90.4153Z" fill="#EE4C2C"/>
<path d="M154.77 87.1705C160.156 87.1705 164.522 82.8045 164.522 77.4188C164.522 72.0331 160.156 67.667 154.77 67.667C149.385 67.667 145.019 72.0331 145.019 77.4188C145.019 82.8045 149.385 87.1705 154.77 87.1705Z" fill="#EE4C2C"/>
</svg>

        </g>
         
        <g transform="translate(300, 0)">
          <svg width="256" height="256" viewBox="0 0 256 256" fill="none" xmlns="http://www.w3.org/2000/svg">
<rect width="256" height="256" rx="60" fill="#242938"/>
<path d="M124.228 229L90.623 208.89V90.31L40 120.459L40.123 75.545L124.228 26V229ZM131.784 26V229L165.393 208.89V151.781L190.763 166.895L190.612 127.833L165.393 112.988V90.31L216 120.459L215.878 75.545L131.784 26Z" fill="#FF6F00"/>
</svg>

        </g>
         
        <g transform="translate(600, 0)">
          <svg width="256" height="256" viewBox="0 0 256 256" fill="none" xmlns="http://www.w3.org/2000/svg">
<rect width="256" height="256" rx="60" fill="#242938"/>
<g clip-path="url(#clip0_983_172)">
<path d="M181.405 160.654C205.831 136.23 209.891 100.69 190.472 81.2731C171.056 61.8579 135.518 65.9168 111.094 90.3399C86.6691 114.764 93.7346 161.426 102.028 169.721C108.73 176.423 156.982 185.078 181.405 160.654Z" fill="#F89939"/>
<path d="M81.1816 125.361C67.0116 111.192 46.3899 108.833 35.1213 120.1C23.8556 131.367 26.211 151.991 40.3838 166.159C54.5567 180.333 81.6323 176.234 86.4412 171.42C90.3327 167.535 95.3558 139.533 81.1816 125.361Z" fill="#3499CD"/>
<path d="M130.073 154.668C127.57 156.972 125.374 158.672 123.487 159.765C121.599 160.861 119.799 161.409 118.086 161.409C116.116 161.409 114.527 160.645 113.321 159.117C112.114 157.587 111.513 155.536 111.513 152.956C111.513 149.089 112.351 144.448 114.027 139.036C115.7 133.62 117.737 128.629 120.13 124.063L127.147 121.466C127.367 121.392 127.534 121.354 127.645 121.354C128.177 121.354 128.617 121.747 128.955 122.528C129.296 123.313 129.467 124.367 129.467 125.692C129.467 129.449 128.603 133.086 126.87 136.603C125.137 140.122 122.432 143.877 118.749 147.873C118.601 149.789 118.528 151.104 118.528 151.823C118.528 153.427 118.822 154.695 119.411 155.635C120.001 156.576 120.783 157.043 121.759 157.043C122.755 157.043 123.813 156.687 124.937 155.969C126.058 155.249 127.771 153.759 130.073 151.492V154.668H130.073ZM119.495 143.869C121.833 141.269 123.732 138.354 125.186 135.128C126.64 131.9 127.366 129.125 127.366 126.799C127.366 126.121 127.266 125.57 127.064 125.156C126.862 124.741 126.602 124.533 126.29 124.533C125.611 124.533 124.62 126.229 123.321 129.622C122.022 133.015 120.747 137.764 119.495 143.869Z" fill="#010101"/>
<path d="M150.737 154.667C148.399 156.972 146.3 158.672 144.439 159.765C142.579 160.861 140.528 161.408 138.28 161.408C135.775 161.408 133.754 160.607 132.214 159.007C130.678 157.402 129.91 155.295 129.91 152.68C129.91 148.777 131.263 145.245 133.973 142.087C136.677 138.927 139.68 137.349 142.976 137.349C144.689 137.349 146.059 137.792 147.092 138.676C148.123 139.561 148.639 140.719 148.639 142.156C148.639 145.969 144.588 149.061 136.485 151.437C137.221 155.026 139.145 156.824 142.258 156.824C143.474 156.824 144.633 156.497 145.737 155.845C146.844 155.19 148.509 153.738 150.738 151.493L150.737 154.667ZM136.263 149.558C140.976 148.231 143.334 145.784 143.334 142.211C143.334 140.443 142.688 139.56 141.401 139.56C140.185 139.56 139.026 140.484 137.922 142.336C136.814 144.186 136.263 146.592 136.263 149.558Z" fill="#010101"/>
<path d="M180.238 154.668C177.291 157.466 175.182 159.292 173.913 160.14C172.642 160.987 171.427 161.409 170.266 161.409C167.356 161.409 165.985 158.841 166.15 153.703C164.309 156.335 162.609 158.278 161.053 159.533C159.498 160.785 157.892 161.409 156.232 161.409C154.614 161.409 153.238 160.651 152.103 159.132C150.969 157.612 150.406 155.749 150.406 153.537C150.406 150.776 151.164 148.142 152.682 145.636C154.203 143.131 156.15 141.108 158.525 139.561C160.9 138.014 163.001 137.239 164.822 137.239C167.125 137.239 168.737 138.299 169.658 140.415L175.303 137.296H176.853L174.414 145.388C173.162 149.459 172.534 152.249 172.534 153.759C172.534 155.342 173.094 156.134 174.219 156.134C174.934 156.134 175.726 155.752 176.592 154.987C177.458 154.222 178.671 153.057 180.236 151.492V154.668H180.238ZM160.018 156.189C161.859 156.189 163.594 154.619 165.227 151.48C166.857 148.339 167.671 145.441 167.671 142.79C167.671 141.76 167.439 140.953 166.981 140.374C166.519 139.792 165.902 139.504 165.13 139.504C163.288 139.504 161.541 141.069 159.896 144.2C158.248 147.332 157.422 150.213 157.422 152.844C157.422 153.84 157.667 154.646 158.155 155.263C158.642 155.881 159.261 156.189 160.018 156.189Z" fill="#010101"/>
<path d="M200.873 154.668C196.25 159.197 192.686 161.464 190.182 161.464C189.058 161.464 188.109 160.99 187.337 160.044C186.566 159.095 186.177 157.92 186.177 156.52C186.177 153.923 187.569 150.444 190.349 146.079C188.985 146.779 187.495 147.265 185.874 147.542C184.677 149.752 182.797 152.128 180.239 154.667H179.605V152.184C181.04 150.692 182.339 149.089 183.499 147.376C181.913 146.676 181.123 145.635 181.123 144.257C181.123 142.837 181.604 141.323 182.574 139.709C183.54 138.1 184.87 137.295 186.566 137.295C188.002 137.295 188.719 138.029 188.719 139.503C188.719 140.664 188.305 142.32 187.475 144.476C190.531 144.143 193.202 141.807 195.487 137.459L197.999 137.348L195.43 144.42C194.363 147.403 193.672 149.435 193.36 150.511C193.048 151.587 192.89 152.542 192.89 153.37C192.89 154.144 193.07 154.763 193.428 155.22C193.787 155.684 194.271 155.912 194.879 155.912C195.541 155.912 196.178 155.685 196.785 155.237C197.392 154.782 198.755 153.535 200.874 151.492V154.668H200.873Z" fill="#010101"/>
<path d="M228 154.668C223.747 159.164 220.098 161.409 217.061 161.409C215.827 161.409 214.833 160.977 214.078 160.111C213.321 159.246 212.944 158.086 212.944 156.632C212.944 154.661 213.755 151.65 215.376 147.6C216.241 145.426 216.675 144.043 216.675 143.456C216.675 142.866 216.443 142.571 215.985 142.571C215.728 142.571 215.385 142.701 214.962 142.957C214.574 143.215 214.123 143.577 213.607 144.036C213.148 144.459 212.631 144.974 212.06 145.58C211.562 146.1 211.028 146.689 210.46 147.349L208.911 149.146C208.231 149.974 207.807 150.848 207.642 151.769C207.364 153.334 207.181 154.772 207.088 156.081C207.031 157.055 207.005 158.37 207.005 160.031L200.9 161.465C200.699 158.979 200.596 157.128 200.596 155.914C200.596 152.949 200.941 150.14 201.633 147.489C202.323 144.835 203.431 141.854 204.961 138.538L211.7 137.24C210.283 141.053 209.353 144.053 208.911 146.244C211.931 142.874 214.326 140.542 216.1 139.242C217.872 137.943 219.45 137.296 220.829 137.296C221.766 137.296 222.549 137.65 223.173 138.357C223.8 139.066 224.111 139.955 224.111 141.018C224.111 142.784 223.32 145.694 221.738 149.747C220.65 152.527 220.107 154.33 220.107 155.163C220.107 156.272 220.559 156.826 221.463 156.826C222.81 156.826 224.991 155.048 228 151.494V154.668Z" fill="#010101"/>
<path d="M140.525 123.723C140.568 124.211 140.69 124.585 140.89 124.845C141.259 125.316 141.898 125.552 142.808 125.552C143.35 125.552 143.827 125.435 144.239 125.202C144.651 124.964 144.856 124.598 144.856 124.105C144.856 123.731 144.691 123.447 144.361 123.252C144.149 123.133 143.732 122.995 143.109 122.837L141.947 122.545C141.205 122.361 140.657 122.155 140.305 121.927C139.677 121.532 139.362 120.984 139.362 120.285C139.362 119.462 139.658 118.795 140.248 118.286C140.844 117.777 141.643 117.522 142.646 117.522C143.957 117.522 144.902 117.907 145.482 118.676C145.845 119.164 146.021 119.689 146.011 120.253H144.629C144.602 119.922 144.485 119.622 144.279 119.351C143.943 118.966 143.361 118.774 142.532 118.774C141.979 118.774 141.559 118.879 141.272 119.091C140.991 119.302 140.85 119.581 140.85 119.928C140.85 120.307 141.037 120.611 141.41 120.838C141.627 120.974 141.947 121.093 142.369 121.196L143.337 121.431C144.388 121.686 145.092 121.933 145.45 122.171C146.019 122.545 146.303 123.133 146.303 123.935C146.303 124.709 146.008 125.379 145.417 125.942C144.832 126.506 143.938 126.787 142.735 126.787C141.44 126.787 140.522 126.495 139.98 125.91C139.444 125.319 139.156 124.59 139.119 123.723H140.525ZM151.334 117.498C152.315 117.498 153.111 117.736 153.723 118.213C154.341 118.69 154.712 119.511 154.837 120.676H153.414C153.328 120.139 153.13 119.695 152.821 119.343C152.512 118.985 152.017 118.806 151.334 118.806C150.402 118.806 149.736 119.261 149.335 120.172C149.074 120.762 148.944 121.491 148.944 122.358C148.944 123.23 149.129 123.964 149.497 124.56C149.866 125.156 150.445 125.454 151.236 125.454C151.843 125.454 152.323 125.27 152.675 124.902C153.032 124.528 153.279 124.019 153.414 123.374H154.837C154.674 124.528 154.268 125.373 153.618 125.91C152.967 126.441 152.136 126.706 151.123 126.706C149.985 126.706 149.077 126.292 148.4 125.463C147.723 124.628 147.384 123.588 147.384 122.342C147.384 120.814 147.755 119.624 148.497 118.774C149.24 117.923 150.185 117.498 151.334 117.498ZM156.3 117.79H157.787V126.454H156.3V117.79ZM156.3 114.515H157.787V116.173H156.3V114.515ZM159.973 114.515H161.379V121.448L165.134 117.75H167.003L163.671 121.009L167.19 126.454H165.321L162.606 122.065L161.379 123.187V126.454H159.973V114.515ZM168.328 117.79H169.815V126.454H168.328V117.79ZM168.328 114.515H169.815V116.173H168.328V114.515ZM172.327 115.32H173.806V117.75H175.196V118.944H173.806V124.625C173.806 124.929 173.909 125.132 174.115 125.235C174.228 125.295 174.418 125.324 174.684 125.324C174.754 125.324 174.83 125.324 174.911 125.324C174.992 125.319 175.087 125.311 175.196 125.3V126.454C175.028 126.503 174.852 126.538 174.667 126.56C174.489 126.581 174.294 126.592 174.082 126.592C173.4 126.592 172.936 126.419 172.692 126.072C172.449 125.72 172.327 125.265 172.327 124.707V118.944H171.148V117.75H172.327V115.32Z" fill="white"/>
</g>
<defs>
<clipPath id="clip0_983_172">
<rect width="200" height="107.86" fill="white" transform="translate(28 69)"/>
</clipPath>
</defs>
</svg>

        </g>
         
        <g transform="translate(900, 0)">
          <svg width="256" height="256" viewBox="0 0 256 256" fill="none" xmlns="http://www.w3.org/2000/svg">
<rect width="256" height="256" rx="60" fill="#242938"/>
<path d="M104.028 122.58C95.08 117.414 88.087 109.44 84.1332 99.895C80.1794 90.3496 79.4857 79.7664 82.1598 69.7866C84.8339 59.8069 90.7262 50.9884 98.923 44.6988C107.12 38.4092 117.163 35 127.495 35C137.826 35 147.87 38.4092 156.066 44.6988C164.263 50.9884 170.155 59.8069 172.829 69.7866C175.504 79.7664 174.81 90.3496 170.856 99.895C166.902 109.44 159.909 117.414 150.962 122.58L136.831 98.1043C140.39 96.0492 143.172 92.8769 144.745 89.0795C146.318 85.282 146.594 81.0717 145.53 77.1015C144.466 73.1312 142.122 69.623 138.861 67.1208C135.6 64.6186 131.605 63.2623 127.495 63.2623C123.384 63.2623 119.389 64.6186 116.128 67.1208C112.867 69.623 110.523 73.1312 109.459 77.1015C108.395 81.0717 108.671 85.282 110.244 89.0795C111.817 92.8769 114.599 96.0492 118.159 98.1043L104.028 122.58Z" fill="#FF0101"/>
<path d="M204.533 133.943C213.481 139.109 220.474 147.083 224.427 156.628C228.381 166.173 229.075 176.756 226.401 186.736C223.727 196.716 217.834 205.534 209.638 211.824C201.441 218.114 191.398 221.523 181.066 221.523C170.734 221.523 160.691 218.114 152.494 211.824C144.297 205.534 138.405 196.716 135.731 186.736C133.057 176.756 133.751 166.173 137.704 156.628C141.658 147.083 148.651 139.109 157.599 133.943L171.73 158.419C168.17 160.474 165.388 163.646 163.815 167.443C162.242 171.241 161.967 175.451 163.03 179.421C164.094 183.392 166.438 186.9 169.699 189.402C172.96 191.904 176.956 193.261 181.066 193.261C185.176 193.261 189.172 191.904 192.433 189.402C195.693 186.9 198.038 183.392 199.101 179.421C200.165 175.451 199.889 171.241 198.316 167.443C196.743 163.646 193.961 160.474 190.402 158.419L204.533 133.943Z" fill="#0101FF"/>
<path d="M121.868 174.589C121.868 184.921 118.459 194.964 112.169 203.16C105.88 211.357 97.0613 217.25 87.0816 219.924C77.1018 222.598 66.5186 221.904 56.9733 217.95C47.4279 213.996 39.4539 207.003 34.288 198.056C29.1221 189.108 27.053 178.706 28.4016 168.463C29.7502 158.219 34.4411 148.707 41.7467 141.401C49.0524 134.096 58.5646 129.405 68.808 128.056C79.0514 126.708 89.4536 128.777 98.4012 133.943L84.27 158.419C80.7104 156.363 76.5721 155.54 72.497 156.077C68.4219 156.613 64.6376 158.479 61.7312 161.386C58.8248 164.292 56.9586 168.077 56.4221 172.152C55.8856 176.227 56.7088 180.365 58.7639 183.925C60.8191 187.484 63.9914 190.266 67.7888 191.839C71.5862 193.412 75.7965 193.688 79.7668 192.624C83.737 191.561 87.2453 189.216 89.7475 185.955C92.2496 182.695 93.6059 178.699 93.6059 174.589H121.868Z" fill="#01FF01"/>
</svg>

        </g>
         
        <g transform="translate(1200, 0)">
          <svg width="256" height="256" viewBox="0 0 256 256" fill="none" xmlns="http://www.w3.org/2000/svg">
<rect width="256" height="256" rx="60" fill="#242938"/>
<path d="M33 138.187L86.7974 116.452C92.2581 109.236 98.4069 102.567 105.157 96.5398C109.612 94.1774 117.982 95.4598 133.305 76.4249C148.155 57.8625 152.88 42 159.832 42C170.835 42 178.935 65.7599 191.22 101.737C199.979 129.218 210.254 156.192 221.999 182.535C209.175 170.587 198.24 157.695 185.752 158.032C174.142 158.302 161.25 172.072 147.142 189.757C135.937 203.932 121.087 213.652 115.282 213.45C115.282 213.45 100.297 171.06 87.7423 164.175C85.1376 163.111 82.318 162.678 79.514 162.913C76.7101 163.147 74.0016 164.042 71.6099 165.525L33 138.12V138.187Z" fill="#4499DD"/>
<path d="M153.151 46.8613C148.629 52.9363 143.161 64.0738 133.306 76.4262C117.984 95.4612 109.681 94.1787 105.159 96.5412C98.3761 102.536 92.2242 109.208 86.7988 116.454L109.074 132.721C127.974 106.936 138.099 78.9912 145.996 60.9013C147.974 56.0246 150.368 51.3272 153.151 46.8613V46.8613Z" fill="url(#paint0_linear_601_132)"/>
<path d="M159.9 42C145.185 42 135.128 119.49 80.7905 162.757C96.0455 160.26 109.275 198.127 115.35 213.45C142.35 208.86 163.95 157.222 185.753 158.032C198.24 158.505 209.175 170.587 222 182.535C192.705 120.975 179.003 42 159.9 42Z" fill="url(#paint1_linear_601_132)"/>
<defs>
<linearGradient id="paint0_linear_601_132" x1="132.921" y1="123.467" x2="120.839" y2="84.452" gradientUnits="userSpaceOnUse">
<stop stop-color="#551122"/>
<stop offset="0.23" stop-color="#552233"/>
<stop offset="0.36" stop-color="#553344"/>
<stop offset="0.51" stop-color="#664455"/>
<stop offset="0.66" stop-color="#556688"/>
<stop offset="0.84" stop-color="#2299DD"/>
</linearGradient>
<linearGradient id="paint1_linear_601_132" x1="220.043" y1="147.86" x2="98.543" y2="118.025" gradientUnits="userSpaceOnUse">
<stop offset="0.081" stop-color="#CC3333"/>
<stop offset="0.189" stop-color="#DE5239"/>
<stop offset="0.313" stop-color="#F06E3E"/>
<stop offset="0.421" stop-color="#FA8042"/>
<stop offset="0.5" stop-color="#FE8643"/>
<stop offset="0.58" stop-color="#FA7F42"/>
<stop offset="0.696" stop-color="#EF6C3E"/>
<stop offset="0.833" stop-color="#DC4C37"/>
<stop offset="0.916" stop-color="#CF3633"/>
</linearGradient>
</defs>
</svg>

        </g>
        
  </svg>
  